<?xml version="1.0" encoding="UTF-8" standalone="no"?>
<svg height="199.45778" viewBox="0 0 489.99998 199.45777" width="490" xmlns="http://www.w3.org/2000/svg">
   <path d="m283.80771 62.32523v6.26235l-48.94852 62.06962h49.97094v6.04934h-57.89472v-6.26235l48.94852-62.06962h-45.62565v-6.04934z" stroke-width=".42600977"/>
   <path d="m324.32124 90.35668c-2.42826-2.30046-5.83633-3.45068-10.22423-3.45068-2.85427-.0426-5.70853.63901-8.22199 2.00224-2.30046 1.27803-4.3453 3.06727-5.87894 5.19732-1.57623 2.21525-2.81166 4.68611-3.53588 7.32737-1.57623 5.49553-1.57623 11.28926 0 16.78478.76682 2.64126 1.95965 5.11212 3.53588 7.32737 1.57624 2.13005 3.57848 3.91929 5.87894 5.19732 2.51346 1.36323 5.36772 2.04485 8.22199 1.95965 1.95964 0 3.91929-.38341 5.75113-1.15023 1.78924-.76682 3.40808-1.83184 4.77131-3.19507 1.40583-1.40584 2.59866-3.02467 3.45068-4.85651.89462-1.91705 1.49103-4.0045 1.66143-6.13455h6.56055c-.89462 6.51795-3.28027 11.63007-7.19956 15.25115-3.91929 3.62109-8.9036 5.45293-14.99554 5.45293-4.0897 0-7.71078-.76682-10.86325-2.21525-3.06727-1.40583-5.79374-3.49328-7.96639-6.09194-2.21525-2.64126-3.87668-5.70853-4.89911-8.98881-2.21525-7.15696-2.21525-14.82514 0-21.9821 1.02243-3.28028 2.68386-6.34755 4.89911-8.98881 2.17265-2.59866 4.89912-4.68611 7.96639-6.13454 3.15247-1.53363 6.77355-2.30045 10.86325-2.30045 5.75113 0 10.65024 1.53363 14.61213 4.6009 4.00449 3.06727 6.39015 7.66818 7.11436 13.84532h-6.56055c-.85202-4.00449-2.51345-7.15696-4.94171-9.45741z" stroke-width=".42600977"/>
   <path d="m345.74953 91.2939c1.02243-2.21525 2.59866-4.1323 4.51571-5.62333 2.00224-1.49104 4.30269-2.59866 6.73095-3.23768 2.76906-.72421 5.66593-1.06502 8.52019-1.02242 2.38566 0 4.77131.25561 7.11437.68162 2.25785.42601 4.4305 1.27802 6.34754 2.55605 1.95965 1.32063 3.53588 3.15248 4.60091 5.28253 1.19283 2.25785 1.78924 5.19731 1.78924 8.7758v28.54265c0 2.64126 1.27803 3.96189 3.83409 3.96189.72421 0 1.40583-.1278 2.08745-.42601v5.49553c-.76682.1278-1.44844.2556-2.04485.2982-.72422.0852-1.49104.12781-2.21525.0852-1.36323.0426-2.72646-.17041-4.00449-.68162-.93723-.38341-1.74664-1.06502-2.34306-1.91704-.59641-.89462-.93722-1.91705-1.10762-2.98207-.17041-1.27803-.25561-2.51346-.25561-3.79149h-.213c-1.10763 1.61884-2.30046 3.15247-3.57849 4.64351-1.19282 1.32063-2.55605 2.47086-4.04709 3.36548-1.57623.93722-3.32287 1.66143-5.11212 2.08744-2.21525.51122-4.5157.76682-6.81615.72422-2.38566 0-4.72871-.29821-7.02916-.89462-2.08745-.55381-4.0471-1.49103-5.70853-2.81166-1.66144-1.32064-2.93947-2.98207-3.83409-4.89912-.97982-2.21525-1.44844-4.6009-1.40583-7.02916 0-3.74888.85202-6.68835 2.51345-8.7758 1.74664-2.17265 4.0045-3.83409 6.60316-4.85651 2.98206-1.15023 6.09193-1.95965 9.28701-2.34305 3.45068-.46862 6.90136-.89463 10.47984-1.27803 1.40583-.12781 2.59866-.29821 3.66368-.51122.93722-.1704 1.83184-.55381 2.59866-1.10762.72422-.55381 1.27803-1.27803 1.61884-2.13005.42601-1.15023.59641-2.34305.55381-3.53588 0-2.21525-.38341-4.04709-1.10762-5.45293-.68162-1.36323-1.74664-2.55605-3.02467-3.36547-1.36323-.85202-2.89687-1.44844-4.47311-1.70404-1.78924-.34081-3.62108-.46861-5.45292-.46861-4.1749 0-7.58297.97982-10.22424 2.98207-2.64126 2.00224-4.00449 5.15471-4.17489 9.54261h-6.56055c.0426-2.85426.72422-5.62332 1.87444-8.17938zm32.80275 16.01796c-.42601.76682-1.23542 1.32063-2.38565 1.66144-1.02242.29821-2.08745.55381-3.10987.72422-2.76907.46861-5.62333.93722-8.6054 1.27803-2.72646.34081-5.45292.89462-8.05158 1.70404-2.21525.63901-4.2601 1.74664-6.00674 3.28027-1.57624 1.40583-2.34306 3.45068-2.34306 6.09194-.0426 1.53364.29821 3.06727.97983 4.4305.63901 1.27803 1.53363 2.42826 2.64126 3.32288 1.15022.93722 2.42825 1.66144 3.83409 2.13005 1.44843.46861 2.93946.72422 4.4731.72422 2.42825 0 4.85651-.38341 7.19956-1.15023 2.21525-.72422 4.2175-1.83184 6.00674-3.32288 3.62108-3.06727 5.66593-7.62557 5.58073-12.39688v-8.5202z" stroke-width=".42600977"/>
   <path d="m428.35283 93.42395c-.72422-1.44844-1.78925-2.72647-3.06727-3.70629-1.32063-.97982-2.81167-1.70404-4.43051-2.13005-1.74664-.46861-3.53588-.68161-5.32512-.68161-1.49103 0-2.98207.1704-4.4305.46861-1.44843.2982-2.85427.80942-4.13229 1.57623-1.23543.68162-2.25786 1.66144-3.02467 2.85427-.80942 1.32063-1.19283 2.85426-1.15023 4.3879-.0426 1.32063.34081 2.59866 1.10763 3.70628.72421 1.02243 1.70403 1.87445 2.76906 2.55606 1.15022.72422 2.38565 1.27803 3.62108 1.70404 1.32063.46861 2.55606.80942 3.66369 1.10763l8.7332 1.95964c1.91704.29821 3.79148.80942 5.58072 1.49104 1.78924.68161 3.40808 1.66143 4.89912 2.85426 1.44843 1.19283 2.64126 2.68386 3.49328 4.3879.93722 1.91705 1.40583 4.00449 1.36323 6.13454 0 2.89687-.68162 5.41033-2.00225 7.45517-1.27803 2.00225-3.02467 3.74889-5.06951 5.02692-2.13005 1.32063-4.47311 2.25785-6.94396 2.76906-2.51346.55382-5.02692.85202-7.58298.85202-6.30494 0-11.41706-1.49103-15.33635-4.4731-3.91929-2.98207-6.13454-7.75338-6.73095-14.35653h6.56055c.2982 4.4305 1.91704 7.79598 4.85651 10.05383 2.93947 2.25785 6.60315 3.36548 10.99105 3.36548 1.66144 0 3.32288-.17041 4.94171-.51121 1.66144-.34081 3.28028-.93723 4.72871-1.78924 1.40583-.80942 2.64126-1.87445 3.57848-3.19508.97983-1.40583 1.44844-3.06727 1.40584-4.72871.0426-1.40583-.29821-2.81166-.97983-4.00449-.68161-1.10762-1.57623-2.00224-2.64126-2.72646-1.19282-.76682-2.47085-1.36323-3.79148-1.83184-1.40584-.46861-2.85427-.89462-4.3453-1.23543l-8.435-1.87444c-2.04484-.51122-4.00449-1.19283-5.96413-1.95965-1.70404-.68161-3.28028-1.57624-4.72871-2.72646-1.32063-1.06503-2.42826-2.42826-3.19508-3.96189-.80941-1.83184-1.19282-3.79149-1.15022-5.79374-.0852-2.47085.55381-4.85651 1.83184-6.98656 1.19283-1.91704 2.81166-3.53588 4.72871-4.6861 2.00224-1.19283 4.2175-2.08745 6.51795-2.59866 2.34305-.55382 4.72871-.85202 7.11436-.85202 2.55606-.0426 5.11212.34081 7.54037 1.02242 2.25786.63902 4.3453 1.74664 6.13454 3.23768 1.78925 1.49103 3.23768 3.32287 4.2175 5.41032 1.10763 2.38565 1.70404 4.98431 1.78924 7.58297h-6.56055c.0426-1.74664-.38341-3.53588-1.15022-5.15471z" stroke-width=".42600977"/>
   <path d="m452.93359 62.32523v29.90589h.213c1.27803-3.28028 3.62109-6.04934 6.64576-7.88118 3.15247-1.95965 6.81615-3.02467 10.52244-2.98207 3.74888 0 6.90136.46861 9.41481 1.44843 2.34306.85202 4.43051 2.25785 6.09194 4.1323 1.57624 1.87444 2.68386 4.08969 3.23768 6.51795.63901 2.85426.97982 5.75113.93722 8.64799v34.592h-6.56055v-33.52697c0-2.13005-.21301-4.3027-.63902-6.39015-.3834-1.83184-1.10762-3.62108-2.17265-5.15472-1.06502-1.49103-2.51345-2.68386-4.21749-3.45067-1.78924-.85202-3.96189-1.23543-6.60315-1.23543-2.42826-.0426-4.81391.42601-7.02917 1.40583-2.00224.89462-3.74888 2.21525-5.19731 3.87669-1.49104 1.70404-2.59866 3.70628-3.32288 5.83633-.80942 2.34306-1.27803 4.85651-1.32063 7.32737v31.35432h-6.56055v-74.42391z" stroke-width=".42600977"/>
   <path d="m99.72889 16.48658c-45.92385 0-83.28491 37.36106-83.28491 83.24231 0 45.88125 37.36106 83.28491 83.28491 83.28491 45.92385 0 83.28491-37.31846 83.28491-83.24231 0-45.92385-37.36106-83.28491-83.28491-83.28491zm0 161.88371c-43.41039 0-78.5988-35.1884-78.5988-78.5988 0-43.41039 35.18841-78.6414 78.5988-78.6414 43.4104 0 78.5988 35.1884 78.5988 78.5988 0 43.4104-35.1884 78.6414-78.5988 78.6414z" fill="none" stroke-width=".42600977"/>
   <path d="m99.72889 21.13009c-43.41039 0-78.5988 35.1884-78.5988 78.5988 0 43.4104 35.18841 78.6414 78.5988 78.6414 43.4104 0 78.5988-35.1884 78.5988-78.5988 0-43.41039-35.1884-78.6414-78.5988-78.6414zm35.57182 47.54269l-7.66818 9.75562-34.50679 47.50009h42.17497v20.15026h-27.22203v16.65698h-2.00224v.0852h-12.69509v-.0852h-2.00225v-16.65698h-27.22202v-15.20855l7.66817-9.75562 34.50679-47.50009h-42.17496v-20.15026h27.22202v-16.74218h16.69958v16.69958h27.22203z" fill="#f4b728" stroke-width=".42600977"/>
   <path d="m99.72889 0c-54.99786 0-99.72889 44.73103-99.72889 99.72889 0 54.99786 44.73103 99.72889 99.72889 99.72889 54.99786 0 99.72889-44.73103 99.72889-99.72889 0-54.99786-44.73103-99.72889-99.72889-99.72889zm0 183.0138c-45.92385 0-83.28491-37.36106-83.28491-83.28491 0-45.92385 37.36106-83.24231 83.28491-83.24231 45.92385 0 83.28491 37.36106 83.28491 83.28491 0 45.92385-37.36106 83.24231-83.28491 83.24231zm8.34979-129.54957h27.22203v15.20855l-42.17497 57.25571h42.17497v20.15026h-27.22203v16.65698h-16.69958v-16.65698h-27.22202v-15.20855l42.17496-57.25571h-42.17496v-20.15026h27.22202v-16.74218h16.69958z" fill="#231f20" stroke-width=".42600977"/>
</svg>
